<svg xmlns="http://www.w3.org/2000/svg" xmlns:xlink="http://www.w3.org/1999/xlink" width="1080" zoomAndPan="magnify" viewBox="0 0 810 809.999993" height="1080" preserveAspectRatio="xMidYMid meet" version="1.2"><defs><clipPath id="a58d3cd09c"><path d="M 420.699219 408.132812 L 515 408.132812 L 515 477.882812 L 420.699219 477.882812 Z M 420.699219 408.132812 "/></clipPath><clipPath id="e0bd03d302"><path d="M 495 425 L 532.449219 425 L 532.449219 463 L 495 463 Z M 495 425 "/></clipPath></defs><g id="b1226230b2"><path style=" stroke:none;fill-rule:nonzero;fill:#000000;fill-opacity:1;" d="M 460.859375 460.445312 C 459.898438 460.445312 459.113281 461.230469 459.113281 462.1875 C 459.113281 463.148438 459.898438 463.929688 460.859375 463.929688 L 474.828125 463.929688 C 475.789062 463.929688 476.574219 463.148438 476.574219 462.1875 C 476.574219 461.230469 475.789062 460.445312 474.828125 460.445312 Z M 460.859375 460.445312 "/><path style=" stroke:none;fill-rule:nonzero;fill:#000000;fill-opacity:1;" d="M 436.5 461.664062 C 436.5 461.859375 436.460938 462.050781 436.386719 462.230469 C 436.3125 462.414062 436.203125 462.574219 436.066406 462.710938 C 435.925781 462.851562 435.765625 462.957031 435.585938 463.035156 C 435.402344 463.109375 435.214844 463.148438 435.015625 463.148438 C 434.820312 463.148438 434.628906 463.109375 434.449219 463.035156 C 434.265625 462.957031 434.105469 462.851562 433.96875 462.710938 C 433.828125 462.574219 433.71875 462.414062 433.644531 462.230469 C 433.570312 462.050781 433.53125 461.859375 433.53125 461.664062 C 433.53125 461.46875 433.570312 461.277344 433.644531 461.097656 C 433.71875 460.914062 433.828125 460.753906 433.96875 460.617188 C 434.105469 460.476562 434.265625 460.371094 434.449219 460.296875 C 434.628906 460.21875 434.820312 460.183594 435.015625 460.183594 C 435.214844 460.183594 435.402344 460.21875 435.585938 460.296875 C 435.765625 460.371094 435.925781 460.476562 436.066406 460.617188 C 436.203125 460.753906 436.3125 460.914062 436.386719 461.097656 C 436.460938 461.277344 436.5 461.46875 436.5 461.664062 Z M 436.5 461.664062 "/><path style=" stroke:none;fill-rule:nonzero;fill:#000000;fill-opacity:1;" d="M 430.652344 461.664062 C 430.652344 461.859375 430.613281 462.050781 430.539062 462.230469 C 430.460938 462.414062 430.355469 462.574219 430.214844 462.710938 C 430.078125 462.851562 429.917969 462.957031 429.734375 463.035156 C 429.554688 463.109375 429.363281 463.148438 429.167969 463.148438 C 428.96875 463.148438 428.78125 463.109375 428.597656 463.035156 C 428.417969 462.957031 428.257812 462.851562 428.117188 462.710938 C 427.976562 462.574219 427.871094 462.414062 427.796875 462.230469 C 427.71875 462.050781 427.683594 461.859375 427.683594 461.664062 C 427.683594 461.46875 427.71875 461.277344 427.796875 461.097656 C 427.871094 460.914062 427.976562 460.753906 428.117188 460.617188 C 428.257812 460.476562 428.417969 460.371094 428.597656 460.296875 C 428.78125 460.21875 428.96875 460.183594 429.167969 460.183594 C 429.363281 460.183594 429.554688 460.21875 429.734375 460.296875 C 429.917969 460.371094 430.078125 460.476562 430.214844 460.617188 C 430.355469 460.753906 430.460938 460.914062 430.539062 461.097656 C 430.613281 461.277344 430.652344 461.46875 430.652344 461.664062 Z M 430.652344 461.664062 "/><path style=" stroke:none;fill-rule:nonzero;fill:#000000;fill-opacity:1;" d="M 459.722656 421.996094 C 459.199219 421.210938 458.066406 420.949219 457.277344 421.472656 L 441.5625 431.933594 C 441.039062 432.285156 440.777344 432.808594 440.777344 433.417969 C 440.777344 434.027344 441.039062 434.550781 441.5625 434.898438 C 441.5625 434.898438 457.277344 445.359375 457.277344 445.359375 C 458.066406 445.882812 459.199219 445.710938 459.722656 444.839844 C 460.246094 444.054688 460.074219 442.921875 459.199219 442.398438 L 445.667969 433.417969 L 459.199219 424.4375 C 459.984375 423.914062 460.246094 422.78125 459.722656 421.996094 Z M 459.722656 421.996094 "/><path style=" stroke:none;fill-rule:nonzero;fill:#000000;fill-opacity:1;" d="M 475.960938 444.839844 C 476.484375 445.621094 477.621094 445.882812 478.40625 445.359375 L 494.121094 434.898438 C 494.644531 434.550781 494.90625 434.027344 494.90625 433.417969 C 494.90625 432.808594 494.644531 432.285156 494.121094 431.933594 L 478.40625 421.472656 C 477.621094 420.949219 476.484375 421.125 475.960938 421.996094 C 475.4375 422.78125 475.613281 423.914062 476.484375 424.4375 L 490.019531 433.417969 L 476.484375 442.398438 C 475.699219 442.921875 475.4375 444.054688 475.960938 444.839844 Z M 475.960938 444.839844 "/><path style=" stroke:none;fill-rule:nonzero;fill:#000000;fill-opacity:1;" d="M 469.675781 419.902344 L 462.691406 446.058594 C 462.429688 447.019531 463.042969 447.976562 463.914062 448.152344 C 464.089844 448.152344 464.175781 448.238281 464.351562 448.238281 C 465.136719 448.238281 465.835938 447.714844 466.007812 446.929688 L 472.992188 420.773438 C 473.253906 419.816406 472.644531 418.855469 471.773438 418.683594 C 470.898438 418.421875 469.9375 418.945312 469.675781 419.902344 Z M 469.675781 419.902344 "/><g clip-rule="nonzero" clip-path="url(#a58d3cd09c)"><path style=" stroke:none;fill-rule:nonzero;fill:#000000;fill-opacity:1;" d="M 460.859375 474.394531 L 455.621094 474.394531 C 454.660156 474.394531 453.875 475.179688 453.875 476.136719 C 453.875 477.097656 454.660156 477.878906 455.621094 477.878906 L 480.066406 477.878906 C 481.027344 477.878906 481.8125 477.097656 481.8125 476.136719 C 481.8125 475.179688 481.027344 474.394531 480.066406 474.394531 L 474.828125 474.394531 L 474.828125 469.164062 L 509.75 469.164062 C 512.019531 469.164062 513.941406 467.679688 514.636719 465.675781 L 512.804688 465.675781 C 512.019531 465.675781 511.320312 465.585938 510.621094 465.328125 C 510.359375 465.5 510.011719 465.675781 509.660156 465.675781 L 425.9375 465.675781 C 424.976562 465.675781 424.191406 464.890625 424.191406 463.929688 L 424.191406 458.699219 L 498.050781 458.699219 L 497.789062 458.4375 C 496.914062 457.566406 496.21875 456.433594 495.867188 455.214844 L 424.191406 455.214844 L 424.191406 413.363281 C 424.191406 412.40625 424.976562 411.621094 425.9375 411.621094 L 509.75 411.621094 C 510.710938 411.621094 511.496094 412.40625 511.496094 413.363281 L 511.496094 422.257812 C 511.933594 422.171875 512.367188 422.082031 512.890625 422.082031 L 514.988281 422.082031 L 514.988281 413.363281 C 514.988281 410.488281 512.628906 408.132812 509.75 408.132812 L 425.9375 408.132812 C 423.054688 408.132812 420.699219 410.488281 420.699219 413.363281 L 420.699219 463.929688 C 420.699219 466.808594 423.054688 469.164062 425.9375 469.164062 L 460.859375 469.164062 Z M 464.351562 469.164062 L 471.335938 469.164062 L 471.335938 474.394531 L 464.351562 474.394531 Z M 464.351562 469.164062 "/></g><g clip-rule="nonzero" clip-path="url(#e0bd03d302)"><path style=" stroke:none;fill-rule:nonzero;fill:#000000;fill-opacity:1;" d="M 529.042969 438.386719 C 528.867188 437.949219 528.695312 437.601562 528.519531 437.164062 C 529.65625 435.507812 529.480469 433.242188 527.996094 431.761719 L 526.25 430.015625 C 525.464844 429.230469 524.328125 428.796875 523.195312 428.796875 C 522.320312 428.796875 521.535156 429.058594 520.835938 429.492188 C 520.488281 429.320312 520.050781 429.144531 519.613281 428.96875 C 519.179688 426.964844 517.433594 425.570312 515.425781 425.570312 L 512.980469 425.570312 C 510.882812 425.570312 509.136719 427.050781 508.789062 428.96875 C 508.351562 429.144531 508.003906 429.320312 507.566406 429.492188 C 506.867188 429.058594 506.082031 428.796875 505.210938 428.796875 C 504.074219 428.796875 502.9375 429.230469 502.152344 430.015625 L 500.40625 431.761719 C 498.921875 433.242188 498.75 435.507812 499.882812 437.164062 C 499.710938 437.515625 499.535156 437.949219 499.359375 438.386719 C 497.351562 438.824219 495.953125 440.566406 495.953125 442.570312 L 495.953125 445.011719 C 495.953125 447.105469 497.4375 448.847656 499.359375 449.195312 C 499.535156 449.632812 499.710938 449.980469 499.882812 450.417969 C 499.445312 451.117188 499.183594 451.898438 499.183594 452.773438 C 499.183594 453.90625 499.621094 455.039062 500.40625 455.824219 L 502.152344 457.566406 C 502.9375 458.351562 504.074219 458.789062 505.210938 458.789062 C 506.082031 458.789062 506.867188 458.527344 507.566406 458.089844 C 507.914062 458.265625 508.351562 458.4375 508.789062 458.613281 C 509.226562 460.617188 510.972656 462.011719 512.980469 462.011719 L 515.425781 462.011719 C 517.519531 462.011719 519.265625 460.53125 519.613281 458.613281 C 520.050781 458.4375 520.398438 458.265625 520.835938 458.089844 C 521.535156 458.527344 522.320312 458.789062 523.195312 458.789062 C 524.328125 458.789062 525.464844 458.351562 526.25 457.566406 L 527.996094 455.824219 C 528.78125 455.039062 529.21875 453.90625 529.21875 452.773438 C 529.21875 451.898438 528.957031 451.117188 528.519531 450.417969 C 528.695312 450.070312 528.867188 449.632812 529.042969 449.195312 C 531.050781 448.761719 532.449219 447.019531 532.449219 445.011719 L 532.449219 442.570312 C 532.449219 440.566406 530.964844 438.824219 529.042969 438.386719 Z M 528.957031 445.097656 C 528.957031 445.535156 528.605469 445.882812 528.171875 445.882812 L 526.335938 445.882812 C 525.988281 447.800781 525.289062 449.457031 524.242188 450.941406 L 525.550781 452.25 C 525.902344 452.597656 525.902344 453.121094 525.550781 453.382812 L 523.804688 455.125 C 523.628906 455.300781 523.457031 455.386719 523.195312 455.386719 C 522.933594 455.386719 522.757812 455.300781 522.582031 455.125 L 521.273438 453.816406 C 519.789062 454.863281 518.042969 455.648438 516.210938 455.910156 L 516.210938 457.742188 C 516.210938 458.175781 515.859375 458.527344 515.425781 458.527344 L 512.980469 458.527344 C 512.542969 458.527344 512.195312 458.175781 512.195312 457.742188 L 512.195312 456.085938 C 510.273438 455.734375 508.613281 455.039062 507.128906 453.992188 L 505.644531 455.214844 C 505.472656 455.386719 505.296875 455.472656 505.035156 455.472656 C 504.773438 455.472656 504.683594 455.386719 504.511719 455.214844 L 502.765625 453.46875 C 502.414062 453.121094 502.414062 452.597656 502.765625 452.335938 L 504.074219 451.027344 C 503.027344 449.546875 502.242188 447.800781 501.980469 445.972656 L 500.144531 445.972656 C 499.710938 445.972656 499.359375 445.621094 499.359375 445.1875 L 499.359375 442.746094 C 499.359375 442.308594 499.710938 441.960938 500.144531 441.960938 L 501.890625 441.960938 C 502.242188 440.042969 502.9375 438.386719 503.988281 436.902344 L 502.765625 435.421875 C 502.414062 435.074219 502.414062 434.550781 502.765625 434.289062 L 504.511719 432.546875 C 504.683594 432.371094 504.859375 432.285156 505.121094 432.285156 C 505.382812 432.285156 505.558594 432.371094 505.734375 432.546875 L 507.042969 433.851562 C 508.527344 432.808594 510.273438 432.023438 512.105469 431.761719 L 512.105469 429.929688 C 512.105469 429.492188 512.457031 429.144531 512.890625 429.144531 L 515.335938 429.144531 C 515.773438 429.144531 516.121094 429.492188 516.121094 429.929688 L 516.121094 431.671875 C 518.042969 432.023438 519.703125 432.71875 521.1875 433.765625 L 522.496094 432.457031 C 522.671875 432.285156 522.84375 432.195312 523.105469 432.195312 C 523.367188 432.195312 523.542969 432.285156 523.71875 432.457031 L 525.464844 434.203125 C 525.8125 434.550781 525.8125 435.074219 525.464844 435.335938 L 524.15625 436.644531 C 525.203125 438.125 525.988281 439.867188 526.25 441.699219 L 528.082031 441.699219 C 528.519531 441.699219 528.867188 442.046875 528.867188 442.484375 L 528.867188 445.097656 Z M 528.957031 445.097656 "/></g><path style=" stroke:none;fill-rule:nonzero;fill:#000000;fill-opacity:1;" d="M 514.113281 436.902344 C 510.273438 436.902344 507.128906 440.042969 507.128906 443.878906 C 507.128906 447.714844 510.273438 450.855469 514.113281 450.855469 C 517.957031 450.855469 521.097656 447.714844 521.097656 443.878906 C 521.097656 440.042969 517.957031 436.902344 514.113281 436.902344 Z M 514.113281 447.367188 C 512.195312 447.367188 510.621094 445.796875 510.621094 443.878906 C 510.621094 441.960938 512.195312 440.390625 514.113281 440.390625 C 516.035156 440.390625 517.605469 441.960938 517.605469 443.878906 C 517.605469 445.796875 516.035156 447.367188 514.113281 447.367188 Z M 514.113281 447.367188 "/><g style="fill:#000000;fill-opacity:1;"><g transform="translate(291.255956, 506.838303)"><path style="stroke:none" d="M 30.625 0 L 30.625 -7.8125 C 39.820312 -10.613281 46.125 -16.613281 49.53125 -25.8125 C 52.9375 -35.019531 54.640625 -51.832031 54.640625 -76.25 L 54.640625 -344.03125 C 54.640625 -368.84375 52.9375 -385.75 49.53125 -394.75 C 46.125 -403.757812 39.820312 -409.664062 30.625 -412.46875 L 30.625 -420.28125 L 309.796875 -420.28125 L 316.40625 -342.21875 L 309.796875 -340.421875 C 299.390625 -366.835938 284.878906 -385.25 266.265625 -395.65625 C 247.660156 -406.0625 222.945312 -411.265625 192.125 -411.265625 L 103.875 -411.265625 L 103.875 -229.34375 L 180.71875 -229.34375 C 203.53125 -229.34375 221.238281 -230.84375 233.84375 -233.84375 C 246.457031 -236.851562 255.664062 -241.457031 261.46875 -247.65625 C 267.269531 -253.863281 271.375 -261.367188 273.78125 -270.171875 L 280.984375 -270.171875 L 280.984375 -179.515625 L 273.78125 -179.515625 C 271.375 -188.722656 267.269531 -196.328125 261.46875 -202.328125 C 255.664062 -208.335938 246.457031 -212.84375 233.84375 -215.84375 C 221.238281 -218.84375 203.53125 -220.34375 180.71875 -220.34375 L 103.875 -220.34375 L 103.875 -36.03125 C 103.875 -18.007812 112.878906 -9 130.890625 -9 L 208.9375 -9 C 237.757812 -9 261.570312 -14.003906 280.375 -24.015625 C 299.1875 -34.023438 314 -53.035156 324.8125 -81.046875 L 331.421875 -79.859375 L 326.609375 0 Z M 30.625 0 "/></g></g><g style="fill:#000000;fill-opacity:1;"><g transform="translate(165.080707, 700.495111)"><path style="stroke:none" d="M 257.5625 6 C 211.53125 6 171.601562 -2.203125 137.78125 -18.609375 C 103.96875 -35.023438 77.753906 -58.738281 59.140625 -89.75 C 40.523438 -120.769531 31.21875 -158.097656 31.21875 -201.734375 C 31.21875 -233.753906 37.019531 -263.269531 48.625 -290.28125 C 60.238281 -317.300781 76.75 -340.914062 98.15625 -361.125 C 119.570312 -381.34375 144.988281 -396.953125 174.40625 -407.953125 C 203.832031 -418.960938 236.15625 -424.46875 271.375 -424.46875 C 288.582031 -424.46875 306.09375 -422.96875 323.90625 -419.96875 C 341.71875 -416.96875 358.03125 -413.265625 372.84375 -408.859375 C 387.65625 -404.460938 398.863281 -399.660156 406.46875 -394.453125 L 408.859375 -323.015625 L 402.859375 -321.8125 C 391.253906 -349.03125 371.941406 -371.039062 344.921875 -387.84375 C 317.898438 -404.65625 286.582031 -413.0625 250.96875 -413.0625 C 219.34375 -413.0625 190.722656 -406.054688 165.109375 -392.046875 C 139.492188 -378.046875 119.179688 -357.234375 104.171875 -329.609375 C 89.160156 -301.992188 81.65625 -267.773438 81.65625 -226.953125 C 81.65625 -198.929688 85.753906 -171.710938 93.953125 -145.296875 C 102.160156 -118.878906 114.46875 -95.160156 130.875 -74.140625 C 147.289062 -53.128906 167.503906 -36.519531 191.515625 -24.3125 C 215.535156 -12.101562 243.15625 -6 274.375 -6 C 306.800781 -6 335.117188 -14.40625 359.328125 -31.21875 C 383.546875 -48.03125 401.457031 -72.644531 413.0625 -105.0625 L 419.671875 -104.46875 L 410.0625 -26.421875 C 396.050781 -18.816406 375.535156 -11.507812 348.515625 -4.5 C 321.503906 2.5 291.1875 6 257.5625 6 Z M 257.5625 6 "/></g></g><g style="fill:#ffffff;fill-opacity:1;"><g transform="translate(420.69831, 521.270978)"><path style="stroke:none" d="M 2.871094 -2.957031 L 3.617188 -2.957031 L 3.617188 -0.804688 L 3.3125 -2.933594 C 3.777344 -3 4.332031 -3.113281 4.972656 -3.269531 C 4.996094 -3.273438 5.015625 -3.28125 5.03125 -3.285156 C 5.03125 -3.285156 5.027344 -3.28125 5.019531 -3.277344 C 4.949219 -3.246094 4.875 -3.191406 4.800781 -3.121094 C 4.527344 -2.863281 4.390625 -2.550781 4.390625 -2.179688 L 4.390625 -38.34375 C 4.390625 -38.019531 4.511719 -37.734375 4.757812 -37.488281 C 4.835938 -37.410156 4.914062 -37.355469 4.992188 -37.316406 C 5.003906 -37.308594 5.011719 -37.304688 5.015625 -37.304688 C 5.007812 -37.304688 4.992188 -37.308594 4.972656 -37.316406 C 4.382812 -37.457031 3.878906 -37.546875 3.464844 -37.574219 L 3.617188 -39.722656 L 3.617188 -37.570312 L 0.71875 -37.570312 L 0.71875 -42.679688 L 16.417969 -42.679688 C 19.078125 -42.679688 21.503906 -42.085938 23.699219 -40.898438 C 25.902344 -39.707031 27.664062 -38.070312 28.972656 -35.992188 C 30.304688 -33.878906 30.96875 -31.46875 30.96875 -28.757812 C 30.96875 -26.09375 30.308594 -23.6875 28.984375 -21.542969 C 27.671875 -19.417969 25.910156 -17.757812 23.699219 -16.5625 C 21.503906 -15.375 19.078125 -14.78125 16.417969 -14.78125 L 8.609375 -14.78125 L 8.609375 -16.933594 L 10.761719 -16.933594 L 10.761719 -2.179688 C 10.761719 -2.5625 10.621094 -2.882812 10.339844 -3.140625 C 10.269531 -3.207031 10.199219 -3.257812 10.132812 -3.289062 L 10.128906 -3.289062 C 10.148438 -3.285156 10.167969 -3.277344 10.195312 -3.273438 C 10.867188 -3.113281 11.425781 -3 11.867188 -2.929688 L 11.539062 -0.804688 L 11.539062 -2.957031 L 14.4375 -2.957031 L 14.4375 2.152344 L 0.71875 2.152344 L 0.71875 -2.957031 Z M 2.871094 1.347656 L 2.871094 -0.804688 L 5.023438 -0.804688 L 5.023438 0 L 2.871094 0 L 2.871094 -2.152344 L 12.285156 -2.152344 L 12.285156 0 L 10.132812 0 L 10.132812 -0.804688 L 12.285156 -0.804688 L 12.285156 1.347656 L 11.375 1.347656 L 11.210938 1.324219 C 10.65625 1.238281 9.988281 1.105469 9.203125 0.917969 C 8.476562 0.746094 7.882812 0.449219 7.425781 0.0273438 C 6.78125 -0.566406 6.457031 -1.304688 6.457031 -2.179688 L 6.457031 -19.085938 L 16.417969 -19.085938 C 18.351562 -19.085938 20.09375 -19.507812 21.648438 -20.347656 C 23.1875 -21.179688 24.410156 -22.332031 25.320312 -23.804688 C 26.214844 -25.257812 26.664062 -26.90625 26.664062 -28.757812 C 26.664062 -30.640625 26.21875 -32.285156 25.332031 -33.695312 C 24.421875 -35.136719 23.195312 -36.277344 21.648438 -37.113281 C 20.09375 -37.953125 18.351562 -38.375 16.417969 -38.375 L 2.871094 -38.375 L 2.871094 -40.527344 L 5.023438 -40.527344 L 5.023438 -39.722656 L 2.871094 -39.722656 L 2.871094 -41.875 L 3.691406 -41.875 L 3.769531 -41.871094 C 4.425781 -41.824219 5.164062 -41.699219 5.992188 -41.5 C 6.734375 -41.316406 7.339844 -40.996094 7.800781 -40.535156 C 8.398438 -39.9375 8.695312 -39.207031 8.695312 -38.34375 L 8.695312 -2.179688 C 8.695312 -1.316406 8.382812 -0.585938 7.757812 0.0078125 C 7.304688 0.4375 6.714844 0.738281 5.992188 0.914062 C 5.214844 1.105469 4.523438 1.242188 3.921875 1.328125 L 3.769531 1.347656 Z M 16.417969 -19.949219 C 17.894531 -19.949219 19.230469 -20.34375 20.417969 -21.136719 C 21.679688 -21.976562 22.695312 -23.085938 23.460938 -24.46875 C 24.21875 -25.824219 24.597656 -27.257812 24.597656 -28.757812 C 24.597656 -30.296875 24.21875 -31.734375 23.46875 -33.070312 C 22.699219 -34.433594 21.683594 -35.539062 20.417969 -36.382812 C 19.230469 -37.171875 17.894531 -37.570312 16.417969 -37.570312 L 11.539062 -37.570312 L 11.539062 -39.722656 L 11.703125 -37.578125 C 11.316406 -37.546875 10.816406 -37.457031 10.195312 -37.3125 C 10.175781 -37.308594 10.15625 -37.300781 10.140625 -37.296875 C 10.144531 -37.296875 10.148438 -37.300781 10.160156 -37.304688 C 10.234375 -37.339844 10.308594 -37.394531 10.386719 -37.46875 C 10.636719 -37.714844 10.761719 -38.007812 10.761719 -38.34375 L 10.761719 -17.792969 L 8.609375 -17.792969 L 8.609375 -19.949219 Z M 16.417969 -15.640625 L 6.457031 -15.640625 L 6.457031 -38.34375 C 6.457031 -39.21875 6.765625 -39.957031 7.382812 -40.554688 C 7.847656 -41.007812 8.457031 -41.324219 9.203125 -41.5 C 10.042969 -41.699219 10.761719 -41.824219 11.371094 -41.871094 L 11.457031 -41.875 L 16.417969 -41.875 C 18.765625 -41.875 20.894531 -41.238281 22.804688 -39.964844 C 24.640625 -38.742188 26.113281 -37.144531 27.21875 -35.183594 C 28.339844 -33.191406 28.902344 -31.046875 28.902344 -28.757812 C 28.902344 -26.511719 28.34375 -24.382812 27.222656 -22.371094 C 26.117188 -20.386719 24.644531 -18.78125 22.804688 -17.554688 C 20.894531 -16.277344 18.765625 -15.640625 16.417969 -15.640625 Z M 16.417969 -15.640625 "/></g></g><g style="fill:#ffffff;fill-opacity:1;"><g transform="translate(452.383026, 521.270978)"><path style="stroke:none" d="M 2.871094 -2.957031 L 3.558594 -2.957031 L 3.558594 -0.804688 L 3.40625 -2.949219 C 3.808594 -2.980469 4.308594 -3.074219 4.90625 -3.230469 C 4.949219 -3.242188 4.972656 -3.25 4.980469 -3.253906 C 4.921875 -3.222656 4.859375 -3.175781 4.789062 -3.113281 C 4.523438 -2.859375 4.390625 -2.550781 4.390625 -2.179688 L 4.390625 -38.289062 C 4.390625 -38.019531 4.46875 -37.769531 4.625 -37.539062 C 4.738281 -37.375 4.859375 -37.257812 4.996094 -37.1875 C 4.84375 -37.265625 4.640625 -37.324219 4.378906 -37.367188 C 3.953125 -37.429688 3.59375 -37.472656 3.300781 -37.488281 L 0.71875 -37.621094 L 0.71875 -42.679688 L 27.238281 -42.679688 L 27.238281 -34.871094 L 23.296875 -34.871094 L 22.699219 -36.0625 C 22.6875 -36.085938 22.566406 -36.292969 22.328125 -36.679688 C 22.140625 -36.988281 21.90625 -37.289062 21.632812 -37.578125 L 21.640625 -37.589844 C 21.742188 -37.539062 21.855469 -37.511719 21.984375 -37.511719 L 8.609375 -37.511719 L 8.609375 -39.664062 L 10.761719 -39.664062 L 10.761719 -22.902344 L 8.609375 -22.902344 L 8.609375 -25.054688 L 22.15625 -25.054688 C 21.792969 -25.054688 21.480469 -24.949219 21.222656 -24.734375 C 21.164062 -24.6875 21.121094 -24.640625 21.085938 -24.597656 C 21.082031 -24.59375 21.082031 -24.589844 21.078125 -24.585938 C 21.085938 -24.59375 21.089844 -24.605469 21.097656 -24.617188 L 22.082031 -26.433594 L 25.917969 -26.433594 L 25.917969 -18.511719 L 22.082031 -18.511719 L 21.097656 -20.328125 C 21.089844 -20.339844 21.085938 -20.351562 21.078125 -20.359375 C 21.082031 -20.355469 21.082031 -20.355469 21.085938 -20.347656 C 21.121094 -20.304688 21.164062 -20.257812 21.222656 -20.210938 C 21.480469 -19.996094 21.792969 -19.890625 22.15625 -19.890625 L 8.609375 -19.890625 L 8.609375 -22.042969 L 10.761719 -22.042969 L 10.761719 -2.179688 C 10.761719 -2.550781 10.628906 -2.859375 10.363281 -3.113281 C 10.296875 -3.175781 10.234375 -3.222656 10.171875 -3.253906 C 10.179688 -3.25 10.207031 -3.242188 10.25 -3.230469 C 10.851562 -3.070312 11.335938 -2.976562 11.703125 -2.949219 L 11.539062 -0.804688 L 11.539062 -2.957031 L 14.4375 -2.957031 L 14.4375 2.152344 L 0.71875 2.152344 L 0.71875 -2.957031 Z M 2.871094 1.347656 L 2.871094 -0.804688 L 5.023438 -0.804688 L 5.023438 0 L 2.871094 0 L 2.871094 -2.152344 L 12.285156 -2.152344 L 12.285156 0 L 10.132812 0 L 10.132812 -0.804688 L 12.285156 -0.804688 L 12.285156 1.347656 L 11.457031 1.347656 L 11.371094 1.34375 C 10.746094 1.292969 10.007812 1.160156 9.152344 0.933594 C 8.433594 0.746094 7.851562 0.4375 7.402344 0.0117188 C 6.773438 -0.582031 6.457031 -1.316406 6.457031 -2.179688 L 6.457031 -24.195312 L 22.15625 -24.195312 C 22.828125 -24.195312 23.429688 -23.972656 23.96875 -23.527344 C 24.320312 -23.238281 24.625 -22.851562 24.882812 -22.378906 L 25.253906 -21.691406 L 23.363281 -20.664062 L 23.363281 -22.816406 L 23.765625 -22.816406 L 23.765625 -20.664062 L 21.613281 -20.664062 L 21.613281 -24.28125 L 23.765625 -24.28125 L 23.765625 -22.128906 L 23.363281 -22.128906 L 23.363281 -24.28125 L 25.253906 -23.257812 L 24.882812 -22.566406 C 24.625 -22.09375 24.320312 -21.710938 23.96875 -21.417969 C 23.429688 -20.972656 22.828125 -20.75 22.15625 -20.75 L 6.457031 -20.75 L 6.457031 -41.816406 L 21.984375 -41.816406 C 23.019531 -41.816406 23.941406 -41.394531 24.75 -40.546875 C 25.238281 -40.035156 25.65625 -39.492188 26.003906 -38.917969 C 26.304688 -38.429688 26.488281 -38.117188 26.550781 -37.988281 L 24.625 -37.023438 L 24.625 -39.175781 L 25.085938 -39.175781 L 25.085938 -37.023438 L 22.933594 -37.023438 L 22.933594 -40.527344 L 25.085938 -40.527344 L 25.085938 -38.375 L 2.871094 -38.375 L 2.871094 -40.527344 L 5.023438 -40.527344 L 5.023438 -39.664062 L 2.871094 -39.664062 L 2.984375 -41.816406 L 3.527344 -41.785156 C 3.964844 -41.761719 4.464844 -41.707031 5.035156 -41.621094 C 5.769531 -41.507812 6.425781 -41.300781 7 -40.996094 C 7.5 -40.734375 7.898438 -40.386719 8.1875 -39.957031 C 8.527344 -39.457031 8.695312 -38.902344 8.695312 -38.289062 L 8.695312 -2.179688 C 8.695312 -1.316406 8.382812 -0.582031 7.75 0.0117188 C 7.304688 0.4375 6.71875 0.746094 6 0.933594 C 5.144531 1.160156 4.382812 1.296875 3.710938 1.34375 L 3.636719 1.347656 Z M 2.871094 1.347656 "/></g></g><g style="fill:#ffffff;fill-opacity:1;"><g transform="translate(480.336748, 521.270978)"><path style="stroke:none" d="M 2.871094 -2.957031 C 3.5625 -2.957031 4.285156 -3.015625 5.035156 -3.132812 C 5.15625 -3.152344 5.226562 -3.167969 5.25 -3.179688 C 5.179688 -3.132812 5.125 -3.070312 5.089844 -2.988281 L 7.058594 -2.125 L 5.054688 -2.902344 L 20.511719 -42.738281 L 25 -42.738281 L 25 -40.527344 L 22.847656 -40.527344 L 24.855469 -41.304688 L 39.777344 -2.785156 L 37.769531 -2.007812 L 39.605469 -3.136719 C 39.589844 -3.160156 39.570312 -3.179688 39.550781 -3.195312 C 39.582031 -3.175781 39.640625 -3.15625 39.730469 -3.136719 C 40.265625 -3.015625 40.875 -2.957031 41.558594 -2.957031 L 43.710938 -2.957031 L 43.710938 2.152344 L 29.992188 2.152344 L 29.992188 -2.957031 L 32.144531 -2.957031 C 32.90625 -2.957031 33.589844 -3.023438 34.199219 -3.164062 C 34.214844 -3.164062 34.226562 -3.167969 34.230469 -3.167969 C 34.207031 -3.160156 34.179688 -3.148438 34.148438 -3.132812 C 33.976562 -3.042969 33.828125 -2.90625 33.699219 -2.726562 C 33.511719 -2.46875 33.414062 -2.1875 33.402344 -1.875 C 33.394531 -1.6875 33.417969 -1.523438 33.476562 -1.382812 L 27.554688 -16.792969 L 29.5625 -17.566406 L 29.5625 -15.414062 L 13.949219 -15.414062 L 13.949219 -17.566406 L 15.957031 -16.785156 L 9.984375 -1.402344 L 7.980469 -2.179688 L 7.980469 -4.335938 L 11.214844 -4.335938 L 10.035156 -1.382812 C 10.203125 -1.800781 10.171875 -2.226562 9.949219 -2.660156 C 9.796875 -2.949219 9.613281 -3.148438 9.390625 -3.25 C 9.621094 -3.144531 9.972656 -3.074219 10.445312 -3.035156 C 11.113281 -2.984375 11.726562 -2.957031 12.285156 -2.957031 L 14.4375 -2.957031 L 14.4375 2.152344 L 0.71875 2.152344 L 0.71875 -2.957031 Z M 2.871094 1.347656 L 2.871094 -0.804688 L 5.023438 -0.804688 L 5.023438 0 L 2.871094 0 L 2.871094 -2.152344 L 12.285156 -2.152344 L 12.285156 0 L 10.132812 0 L 10.132812 -0.804688 L 12.285156 -0.804688 L 12.285156 1.347656 C 11.617188 1.347656 10.890625 1.316406 10.105469 1.257812 C 9.125 1.179688 8.289062 0.980469 7.597656 0.664062 C 6.917969 0.355469 6.425781 -0.0976562 6.125 -0.683594 C 5.746094 -1.414062 5.71875 -2.179688 6.039062 -2.980469 L 8.035156 -2.179688 L 8.035156 -0.0273438 L 4.835938 -0.0273438 L 12.476562 -19.71875 L 31.042969 -19.71875 L 37.472656 -2.980469 C 37.644531 -2.550781 37.722656 -2.125 37.703125 -1.703125 C 37.683594 -1.152344 37.511719 -0.65625 37.195312 -0.214844 C 36.742188 0.414062 36.058594 0.832031 35.144531 1.039062 C 34.222656 1.246094 33.222656 1.347656 32.144531 1.347656 L 32.144531 -0.804688 L 34.296875 -0.804688 L 34.296875 0 L 32.144531 0 L 32.144531 -2.152344 L 41.558594 -2.152344 L 41.558594 0 L 39.40625 0 L 39.40625 -0.804688 L 41.558594 -0.804688 L 41.558594 1.347656 C 40.558594 1.347656 39.640625 1.253906 38.796875 1.066406 C 37.515625 0.785156 36.5625 0.132812 35.9375 -0.878906 L 35.835938 -1.046875 L 20.695312 -40.125 L 20.695312 -40.582031 L 22.847656 -40.582031 L 22.847656 -38.429688 L 21.984375 -38.429688 L 21.984375 -40.582031 L 23.992188 -39.804688 L 9.050781 -1.300781 L 9.03125 -1.261719 C 8.730469 -0.566406 8.257812 -0.0078125 7.625 0.410156 C 7.078125 0.769531 6.4375 1.007812 5.699219 1.121094 C 4.726562 1.273438 3.785156 1.347656 2.871094 1.347656 Z M 27.210938 -17.59375 L 19.746094 -36.878906 L 21.753906 -37.65625 L 23.761719 -36.878906 L 16.300781 -17.59375 L 14.292969 -18.367188 L 14.292969 -20.523438 L 29.21875 -20.523438 L 29.21875 -18.367188 Z M 32.359375 -16.214844 L 11.152344 -16.214844 L 21.753906 -43.621094 L 31.226562 -19.144531 Z M 32.359375 -16.214844 "/></g></g><g style="fill:#000000;fill-opacity:1;"><g transform="translate(420.69831, 521.270978)"><path style="stroke:none" d="M 2.875 -0.796875 L 3.609375 -0.796875 C 4.148438 -0.878906 4.773438 -1.003906 5.484375 -1.171875 C 6.191406 -1.347656 6.546875 -1.6875 6.546875 -2.1875 L 6.546875 -38.34375 C 6.546875 -38.882812 6.191406 -39.238281 5.484375 -39.40625 C 4.773438 -39.582031 4.148438 -39.6875 3.609375 -39.71875 L 2.875 -39.71875 L 2.875 -40.53125 L 16.421875 -40.53125 C 18.710938 -40.53125 20.796875 -40.019531 22.671875 -39 C 24.546875 -37.988281 26.035156 -36.601562 27.140625 -34.84375 C 28.253906 -33.082031 28.8125 -31.054688 28.8125 -28.765625 C 28.8125 -26.503906 28.253906 -24.472656 27.140625 -22.671875 C 26.035156 -20.878906 24.546875 -19.472656 22.671875 -18.453125 C 20.796875 -17.441406 18.710938 -16.9375 16.421875 -16.9375 L 8.609375 -16.9375 L 8.609375 -2.1875 C 8.609375 -1.6875 8.972656 -1.347656 9.703125 -1.171875 C 10.429688 -1.003906 11.039062 -0.878906 11.53125 -0.796875 L 12.28125 -0.796875 L 12.28125 0 L 2.875 0 Z M 16.421875 -17.796875 C 18.328125 -17.796875 20.054688 -18.3125 21.609375 -19.34375 C 23.160156 -20.375 24.40625 -21.734375 25.34375 -23.421875 C 26.28125 -25.109375 26.75 -26.890625 26.75 -28.765625 C 26.75 -30.671875 26.28125 -32.457031 25.34375 -34.125 C 24.40625 -35.789062 23.160156 -37.140625 21.609375 -38.171875 C 20.054688 -39.203125 18.328125 -39.71875 16.421875 -39.71875 L 11.53125 -39.71875 C 11.039062 -39.6875 10.429688 -39.582031 9.703125 -39.40625 C 8.972656 -39.238281 8.609375 -38.882812 8.609375 -38.34375 L 8.609375 -17.796875 Z M 16.421875 -17.796875 "/></g></g><g style="fill:#000000;fill-opacity:1;"><g transform="translate(452.383026, 521.270978)"><path style="stroke:none" d="M 2.875 -0.796875 L 3.5625 -0.796875 C 4.09375 -0.835938 4.722656 -0.953125 5.453125 -1.140625 C 6.179688 -1.335938 6.546875 -1.6875 6.546875 -2.1875 L 6.546875 -38.296875 C 6.546875 -38.640625 6.363281 -38.90625 6 -39.09375 C 5.632812 -39.28125 5.203125 -39.410156 4.703125 -39.484375 C 4.210938 -39.566406 3.785156 -39.617188 3.421875 -39.640625 C 3.054688 -39.660156 2.875 -39.671875 2.875 -39.671875 L 2.875 -40.53125 L 25.09375 -40.53125 L 25.09375 -37.03125 L 24.625 -37.03125 C 24.582031 -37.101562 24.425781 -37.359375 24.15625 -37.796875 C 23.894531 -38.242188 23.570312 -38.664062 23.1875 -39.0625 C 22.8125 -39.46875 22.410156 -39.671875 21.984375 -39.671875 L 8.609375 -39.671875 L 8.609375 -22.90625 L 22.15625 -22.90625 C 22.46875 -22.90625 22.742188 -23.132812 22.984375 -23.59375 C 23.234375 -24.050781 23.359375 -24.28125 23.359375 -24.28125 L 23.765625 -24.28125 L 23.765625 -20.671875 L 23.359375 -20.671875 C 23.359375 -20.671875 23.234375 -20.898438 22.984375 -21.359375 C 22.742188 -21.816406 22.46875 -22.046875 22.15625 -22.046875 L 8.609375 -22.046875 L 8.609375 -2.1875 C 8.609375 -1.6875 8.972656 -1.335938 9.703125 -1.140625 C 10.429688 -0.953125 11.039062 -0.835938 11.53125 -0.796875 L 12.28125 -0.796875 L 12.28125 0 L 2.875 0 Z M 2.875 -0.796875 "/></g></g><g style="fill:#000000;fill-opacity:1;"><g transform="translate(480.336748, 521.270978)"><path style="stroke:none" d="M 2.875 -0.796875 C 3.675781 -0.796875 4.503906 -0.863281 5.359375 -1 C 6.222656 -1.132812 6.789062 -1.507812 7.0625 -2.125 L 21.984375 -40.59375 L 22.84375 -40.59375 L 22.84375 -40.53125 L 37.765625 -2.015625 C 38.078125 -1.515625 38.578125 -1.1875 39.265625 -1.03125 C 39.953125 -0.875 40.71875 -0.796875 41.5625 -0.796875 L 41.5625 0 L 32.140625 0 L 32.140625 -0.796875 C 33.066406 -0.796875 33.910156 -0.882812 34.671875 -1.0625 C 35.441406 -1.238281 35.710938 -1.613281 35.484375 -2.1875 L 29.5625 -17.5625 L 13.953125 -17.5625 L 7.984375 -2.1875 L 8.03125 -2.1875 C 7.882812 -1.800781 8.039062 -1.5 8.5 -1.28125 C 8.957031 -1.070312 9.546875 -0.9375 10.265625 -0.875 C 10.992188 -0.820312 11.664062 -0.796875 12.28125 -0.796875 L 12.28125 0 L 2.875 0 Z M 29.21875 -18.375 L 21.75 -37.65625 L 14.296875 -18.375 Z M 29.21875 -18.375 "/></g></g></g></svg>